<?xml version="1.0" encoding="UTF-8"?><svg id="Layer_1" xmlns="http://www.w3.org/2000/svg" xmlns:xlink="http://www.w3.org/1999/xlink" viewBox="0 0 348.9 356.02"><defs><style>.cls-1{fill:#32a753;}.cls-2{clip-path:url(#clippath-1);}.cls-3{clip-path:url(#clippath-3);}.cls-4{clip-path:url(#clippath-2);}.cls-5{fill:#3e82f1;}.cls-6{fill:#f9bb00;}.cls-7{clip-rule:evenodd;fill:none;}.cls-8{clip-path:url(#clippath);}.cls-9{fill:#e74133;}</style><clipPath id="clippath"><path class="cls-7" d="M348.9,182.06c0-12.62-1.13-24.76-3.24-36.41h-167.65v68.86h95.8c-4.13,22.25-16.67,41.11-35.52,53.73v44.66h57.53c33.66-30.99,53.08-76.63,53.08-130.84h0ZM348.9,182.06"/></clipPath><clipPath id="clippath-1"><path class="cls-7" d="M178.01,356.02c48.06,0,88.36-15.94,117.81-43.13l-57.53-44.66c-15.94,10.68-36.33,16.99-60.28,16.99-46.36,0-85.61-31.31-99.61-73.39H18.93v46.12c29.29,58.18,89.49,98.07,159.08,98.07h0ZM178.01,356.02"/></clipPath><clipPath id="clippath-2"><path class="cls-7" d="M78.41,211.83c-3.56-10.68-5.58-22.09-5.58-33.82s2.02-23.14,5.58-33.82v-46.12H18.93C6.88,122.1,0,149.29,0,178.01s6.88,55.91,18.93,79.94l59.47-46.12h0ZM78.41,211.83"/></clipPath><clipPath id="clippath-3"><path class="cls-7" d="M178.01,70.8c26.14,0,49.6,8.98,68.05,26.62l51.06-51.06C266.29,17.64,225.99,0,178.01,0,108.42,0,48.22,39.89,18.93,98.07l59.47,46.12c14-42.08,53.24-73.39,99.61-73.39h0ZM178.01,70.8"/></clipPath></defs><g class="cls-8"><rect class="cls-5" x="79.12" y="46.75" width="368.68" height="365.04"/></g><g class="cls-2"><rect class="cls-1" x="-79.96" y="112.94" width="474.68" height="341.98"/></g><g class="cls-4"><rect class="cls-6" x="-98.9" y="-.83" width="276.2" height="357.68"/></g><g class="cls-3"><rect class="cls-9" x="-79.96" y="-98.89" width="475.97" height="341.98"/></g></svg>